<svg xmlns="http://www.w3.org/2000/svg" id="Camada_2" data-name="Camada 2" viewBox="0 0 236.87 63.15"><defs><style>      .cls-1 {        fill: #fff;      }    </style></defs><g id="Camada_1-2" data-name="Camada 1"><path class="cls-1" d="M49.88,3.68l-1.82,10.35c-.17.91-.83,1.57-1.74,1.57h-.17c-3.31-.25-12.67-1.08-18.64-1.08-2.32,0-4.72.75-4.72,3.48,0,1.16.83,1.9,3.64,3.56l10.1,5.96c5.96,3.48,8.28,8.03,8.28,13.83,0,15.49-13,21.78-27.08,21.78-6.79,0-12.09-.91-16.32-2.15-.75-.25-1.41-.66-1.41-1.41v-.25l1.74-10.19c.17-.91.91-1.66,1.9-1.66h.17c3.4.33,12.18,1.24,16.57,1.24,3.31,0,6.05-1.16,6.05-4.89,0-1.24-.83-2.15-3.23-3.73l-10.68-7.04c-4.8-3.15-7.12-8.53-7.12-13.67C5.4,4.47,17.08,0,30.25,0c6.54,0,15.16,1.08,18.39,2.07.66.25,1.24.58,1.24,1.32v.29Z"></path><path class="cls-1" d="M96.93,2.69l-1.74,10.1c-.17.91-1.08,1.66-1.99,1.66h-16.73c-2.98,0-4.14.99-4.72,4.14l-1.08,6.05h20.37c.83,0,1.41.58,1.41,1.41v.25l-1.74,9.77c-.17.91-.99,1.66-1.91,1.66h-20.37l-1.24,6.87c-.08.66-.17,1.16-.17,1.66,0,1.9.99,2.48,3.4,2.48h16.73c.83,0,1.41.58,1.41,1.41v.25l-1.82,10.1c-.17.99-.83,1.49-1.9,1.66-3.23.41-8.28.99-16.32.99-9.69,0-18.55-3.48-18.55-14.33,0-1.33.17-2.73.41-4.22l4.56-26.01C57.84,1.86,67.78.04,79.46.04c8.03,0,13.09.58,16.15.99.91.08,1.32.5,1.32,1.32v.33h0Z"></path><path class="cls-1" d="M155.65,2.52l-9.94,56.82c-.33,1.66-1.99,3.07-3.65,3.07h-10.27c-1.49,0-2.4-.66-3.06-2.24l-12.26-27.75c-.25-.58-.5-.66-.75-.66s-.41.17-.5.74l-4.97,28.24c-.17.91-1.08,1.66-1.99,1.66h-12.42c-.83,0-1.41-.58-1.41-1.41v-.25L104.37,3.92c.33-1.66,1.99-3.06,3.65-3.06h10.1c1.57,0,2.24.99,2.9,2.4l12.59,28.57c.25.58.33.74.58.74s.5-.08.58-.74l5.13-29.32c.17-.91,1.08-1.66,1.99-1.66h12.42c.83,0,1.33.58,1.33,1.33v.33h0Z"></path><path class="cls-1" d="M202.79,62.41h-14.08c-.83,0-1.41-.75-1.41-1.57l-.25-11.51h-14.74l-4.39,11.51c-.33.83-1.08,1.57-1.91,1.57h-14.66c-.74,0-1.16-.41-1.16-1.08,0-.17.08-.42.17-.66l20.04-50.69C173.63,1.78,180.17.12,188.04.12s13.83,1.66,14.16,9.86l2.15,50.69v.08c0,.91-.66,1.66-1.57,1.66h.01ZM186.63,15.03c0-.74,0-1.16-.74-1.16s-.83.41-1.08,1.16l-7.79,21.04h9.94s-.33-21.04-.33-21.04Z"></path><path class="cls-1" d="M236.84,2.44c.17-1.08-.5-1.57-1.41-1.57h-13.58c-.91,0-1.74.66-1.91,1.57l-2.59,14.7,18.42-8.63,1.07-6.07Z"></path><path class="cls-1" d="M216.2,23.73l-6.52,37.02c-.17.83.33,1.66,1.33,1.66h13.58c1.24,0,1.82-.75,1.99-1.66l8.04-45.65-18.42,8.63h0Z"></path></g></svg>